<?xml version="1.0" encoding="utf-8"?>
<!-- Generator: Adobe Illustrator 17.0.0, SVG Export Plug-In . SVG Version: 6.00 Build 0)  -->
<!DOCTYPE svg PUBLIC "-//W3C//DTD SVG 1.1//EN" "http://www.w3.org/Graphics/SVG/1.1/DTD/svg11.dtd">
<svg version="1.1" xmlns="http://www.w3.org/2000/svg" xmlns:xlink="http://www.w3.org/1999/xlink" x="0px" y="0px" width="100px"
	 height="80px" viewBox="0 0 100 80" enable-background="new 0 0 100 80" xml:space="preserve">
<g id="Layer_2" display="none">
	<rect display="inline" fill="#2B2B2B" width="100" height="80"/>
</g>
<g id="Layer_1">
	<g>
		<g>
			<g>
				<path fill="none" stroke="#FFFFFF" stroke-width="2" stroke-miterlimit="10" d="M26.875,21.694h10.829
					c3.056,0,5.471,0.793,6.942,2.264c1.095,1.094,1.698,2.566,1.698,4.377v0.076c0,3.245-2.075,5.547-5.093,6.226
					c3.622,0.528,6.489,3.019,6.489,6.566v0.075c0,4.339-3.471,6.829-9.433,6.829H26.875V21.694z M38.307,34.372
					c3.925,0,7.207-1.886,7.207-5.924v-0.075c0-3.585-2.905-5.924-7.848-5.924h-9.962v11.924H38.307z M38.307,47.353
					c5.434,0,8.603-2.227,8.603-6.038V41.24c0-3.999-3.622-6.112-7.962-6.112H27.704v12.226H38.307z"/>
			</g>
			<g>
				<path fill="none" stroke="#FFFFFF" stroke-width="2" stroke-miterlimit="10" d="M53.517,32.753l0.886-0.007l6.422,14.285
					L72.257,21.6h0.868L61.126,48.201h-0.642L53.517,32.753z"/>
			</g>
		</g>
		<line fill="none" stroke="#FFFFFF" stroke-width="3" stroke-miterlimit="10" x1="23" y1="58.5" x2="76" y2="58.5"/>
	</g>
</g>
</svg>
