<svg xmlns="http://www.w3.org/2000/svg" width="100" height="80" viewBox="0 0 100 80"><path fill="none" stroke="#FFF" stroke-width="2" stroke-miterlimit="10" d="M26.875 24.694h10.83c3.055 0 5.47.793 6.94 2.264 1.096 1.094 1.7 2.566 1.7 4.377v.076c0 3.246-2.076 5.548-5.094 6.227 3.623.528 6.49 3.02 6.49 6.566v.075c0 4.34-3.47 6.83-9.433 6.83H26.875V24.693zm11.432 12.678c3.925 0 7.207-1.886 7.207-5.924v-.075c0-3.585-2.905-5.924-7.848-5.924h-9.962v11.923h10.603zm0 12.98c5.434 0 8.603-2.226 8.603-6.037v-.075c0-4-3.622-6.112-7.962-6.112H27.704v12.226h10.603zM53.517 35.753l.886-.007 6.422 14.285L72.257 24.6h.868l-12 26.6h-.64l-6.968-15.447z"/><path fill="none" stroke="#FFF" stroke-width="3" stroke-miterlimit="10" d="M23 61.5h53"/></svg>