<?xml version="1.0" encoding="utf-8"?>
<!-- Generator: Adobe Illustrator 17.0.0, SVG Export Plug-In . SVG Version: 6.00 Build 0)  -->
<!DOCTYPE svg PUBLIC "-//W3C//DTD SVG 1.1//EN" "http://www.w3.org/Graphics/SVG/1.1/DTD/svg11.dtd">
<svg version="1.1" id="Layer_1" xmlns="http://www.w3.org/2000/svg" xmlns:xlink="http://www.w3.org/1999/xlink" x="0px" y="0px"
	 width="100px" height="80px" viewBox="0 0 100 80" enable-background="new 0 0 100 80" xml:space="preserve">
<rect x="9.5" y="10.5" opacity="0.6" fill="none" stroke="#FFFFFF" stroke-width="5" stroke-miterlimit="10" width="80" height="61"/>
<g>
	<path fill="none" stroke="#FFFFFF" stroke-width="2" stroke-miterlimit="10" d="M24,26.268h12.254c3.458,0,6.191,0.897,7.856,2.562
		c1.239,1.238,1.921,2.903,1.921,4.953v0.086c0,3.672-2.348,6.277-5.763,7.045c4.098,0.598,7.343,3.416,7.343,7.43v0.085
		c0,4.91-3.928,7.728-10.674,7.728H24V26.268z M36.937,40.614c4.441,0,8.155-2.135,8.155-6.703v-0.085
		c0-4.056-3.288-6.704-8.881-6.704H24.939v13.492H36.937z M36.937,55.303c6.149,0,9.735-2.52,9.735-6.832v-0.085
		c0-4.525-4.099-6.917-9.009-6.917H24.939v13.834H36.937z"/>
</g>
<g>
	<path fill="none" stroke="#FFFFFF" stroke-width="2" stroke-miterlimit="10" d="M54.147,38.889l1.002-0.008l7.267,16.165
		l12.937-28.778h0.982L62.758,56.37h-0.726L54.147,38.889z"/>
</g>
</svg>
